HIERARCHY
ROOT Hips
{
	OFFSET -0.179506 -22.333345 2.821913
	CHANNELS 6 Xposition Yposition Zposition Zrotation Yrotation Xrotation 
	JOINT LeftUpLeg
	{
		OFFSET 6.951974 -9.140623 -0.681533
		CHANNELS 3 Zrotation Yrotation Xrotation
		JOINT LeftLeg
		{
			OFFSET 3.427654 -37.519855 -0.449580
			CHANNELS 3 Zrotation Yrotation Xrotation
			JOINT LeftFoot
			{
				OFFSET -1.359570 -39.796059 -4.369333
				CHANNELS 3 Zrotation Yrotation Xrotation
				JOINT LeftToe
				{
					OFFSET 2.635814 -5.579078 11.928840
					CHANNELS 3 Zrotation Yrotation Xrotation
					End Site
					{
						OFFSET 0.000000 0.000000 0.000000
					}
				}
			}
		}
	}
	JOINT RightUpLeg
	{
		OFFSET -6.767048 -9.052170 -0.431982
		CHANNELS 3 Zrotation Yrotation Xrotation
		JOINT RightLeg
		{
			OFFSET -3.829005 -38.256897 -0.885003
			CHANNELS 3 Zrotation Yrotation Xrotation
			JOINT RightFoot
			{
				OFFSET 1.577377 -39.841461 -4.231180
				CHANNELS 3 Zrotation Yrotation Xrotation
				JOINT RightToe
				{
					OFFSET -2.537174 -4.814398 12.334795
					CHANNELS 3 Zrotation Yrotation Xrotation
					End Site
					{
						OFFSET 0.000000 0.000000 0.000000
					}
				}
			}
		}
	}
	JOINT Spine
	{
		OFFSET -0.253288 10.896323 -2.669631
		CHANNELS 3 Zrotation Yrotation Xrotation
		JOINT Spine1
		{
			OFFSET 0.548704 13.518043 0.109247
			CHANNELS 3 Zrotation Yrotation Xrotation
			JOINT Spine2
			{
				OFFSET 0.145701 5.292222 2.542457
				CHANNELS 3 Zrotation Yrotation Xrotation
				JOINT Neck
				{
					OFFSET -0.277840 21.387037 -4.285703
					CHANNELS 3 Zrotation Yrotation Xrotation
					JOINT Head
					{
						OFFSET 0.515184 6.496960 5.134897
						CHANNELS 3 Zrotation Yrotation Xrotation
						End Site
						{
							OFFSET 0.000000 0.000000 0.000000
						}
					}
				}
				JOINT LeftShoulder
				{
					OFFSET 7.884473 12.174932 -3.408961
					CHANNELS 3 Zrotation Yrotation Xrotation
					JOINT LeftArm
					{
						OFFSET 9.097692 3.046888 -0.886815
						CHANNELS 3 Zrotation Yrotation Xrotation
						JOINT LeftForeArm
						{
							OFFSET 25.961220 -1.277207 -2.745643
							CHANNELS 3 Zrotation Yrotation Xrotation
							JOINT LeftHand
							{
								OFFSET 24.923361 0.898606 -0.117091
								CHANNELS 3 Zrotation Yrotation Xrotation
								End Site
								{
									OFFSET 0.000000 0.000000 0.000000
								}
							}
						}
					}
				}
				JOINT RightShoulder
				{
					OFFSET -8.175920 11.883285 -3.861528
					CHANNELS 3 Zrotation Yrotation Xrotation
					JOINT RightArm
					{
						OFFSET -9.601238 3.255117 -0.914307
						CHANNELS 3 Zrotation Yrotation Xrotation
						JOINT RightForeArm
						{
							OFFSET -25.374195 -1.332924 -2.140099
							CHANNELS 3 Zrotation Yrotation Xrotation
							JOINT RightHand
							{
								OFFSET -25.529810 0.777228 -0.555919
								CHANNELS 3 Zrotation Yrotation Xrotation
								End Site
								{
									OFFSET 0.000000 0.000000 0.000000
								}
							}
						}
					}
				}
			}
		}
	}
}
MOTION
Frames: 15
Frame Time: 0.033333
16.704271 -17.285769 88.853302 46.545399 0.551011 76.294088 -0.535118 -4.380239 -0.329824 -10.025154 -8.469505 42.476374 6.775920 7.638618 -28.750093 nan nan nan -6.918345 6.263348 -33.999485 -4.020404 -8.489433 81.485561 7.583137 -0.684428 -7.894744 nan nan nan -3.300533 -1.571482 24.687770 3.564201 0.784050 -0.809030 2.128618 -0.616861 -3.339882 1.140992 33.196433 7.188507 -11.277915 29.505825 -13.238621 -22.118029 -4.927540 4.321008 -38.677946 4.137544 13.536552 -172.933442 -68.226415 -159.740572 -21.153911 -16.050178 -11.531944 23.622374 -0.127371 0.184733 50.277275 0.574905 13.183464 -150.813503 62.003444 -127.686715 30.394059 14.013131 -16.986602 
15.045423 -15.577533 88.681915 46.545526 -0.014018 76.546820 -1.056359 -5.129920 -2.802165 -9.748225 -7.397902 42.886876 7.036052 7.491512 -27.399341 nan nan nan -7.422684 5.685823 -32.513607 -4.467982 -8.436222 84.351337 7.529372 -1.251377 -7.663656 nan nan nan -3.515963 -0.770641 24.183176 3.389391 1.013875 0.088654 1.865811 -0.256015 -3.963272 1.414104 33.138060 7.479295 -12.066900 29.336479 -13.873077 -21.787872 -3.532495 4.779233 -39.269637 6.145149 12.870275 -170.022997 -68.604016 -161.798562 -20.713218 -17.264326 -11.878273 23.380872 0.296468 0.133549 49.796444 3.082347 12.721291 -150.489175 61.652919 -126.386294 29.738585 13.842046 -14.438522 
13.342356 -13.940557 88.613335 46.690429 -0.308463 77.049082 -1.114507 -5.680320 -5.688256 -9.431164 -6.549012 43.455240 7.105127 6.963609 -25.752641 nan nan nan -7.462008 5.097784 -30.835525 -4.847958 -8.387141 86.569497 7.267945 -2.057203 -7.116310 nan nan nan -3.674976 -0.039243 23.295808 3.305990 1.233816 0.797697 1.751579 0.118463 -4.375312 1.599703 33.058229 8.007485 -12.660396 29.161948 -14.561470 -21.250411 -1.953623 5.234021 -39.849485 7.974435 12.151431 -167.019826 -68.647637 -164.466281 -20.613849 -17.889806 -12.753747 22.841020 0.658762 0.335314 49.273308 5.613411 12.288030 -150.354528 61.458236 -125.974008 28.044054 14.150959 -13.644424 
11.768862 -12.338064 88.644638 46.555552 -0.590483 77.298054 -1.255285 -5.900729 -7.950482 -9.011951 -5.915044 43.583623 7.064884 6.651918 -24.148863 nan nan nan -7.256247 4.489785 -28.468905 -4.857117 -7.971138 88.121479 6.998373 -2.742932 -6.732071 nan nan nan -3.701147 0.785342 22.295705 3.185426 1.636961 1.255709 1.678948 0.651702 -4.249253 1.630560 32.734266 8.828208 -13.107888 29.191052 -15.142722 -20.688611 -0.635419 5.732252 -40.480194 9.829869 11.311874 -164.621849 -68.783247 -166.744992 -19.866077 -18.371051 -13.480352 21.957704 1.086772 0.441781 48.858331 7.714654 11.691201 -150.325793 61.223943 -125.956478 26.644405 14.412648 -13.358108 
10.270401 -10.794875 88.831726 46.112334 -0.639300 77.154008 -1.206793 -5.617981 -9.443554 -8.579430 -5.673369 43.297499 6.923989 6.433388 -22.342751 nan nan nan -6.491444 3.883933 -25.215739 -4.524560 -7.243120 88.721407 6.365335 -3.647381 -5.964239 nan nan nan -3.409062 1.447071 21.592662 2.986995 2.258598 1.455830 1.580603 1.492140 -3.905674 1.376997 31.867685 9.642820 -13.230736 29.639643 -15.582266 -20.385447 0.440231 6.212123 -40.614873 12.062130 10.589381 -162.347899 -68.358936 -169.294734 -19.443292 -19.113414 -15.392661 20.914865 1.719073 0.440171 48.576354 9.102096 10.883372 -150.194399 60.865781 -126.088427 26.242774 14.399464 -12.808443 
8.642364 -9.256578 89.169113 45.868602 -0.817877 77.188205 -1.244843 -5.673179 -10.995623 -8.450338 -5.664612 42.622053 6.872007 6.404939 -20.021980 nan nan nan -5.793867 3.110142 -21.986173 -3.964615 -6.495020 88.725618 5.654520 -4.780499 -4.848334 nan nan nan -3.350449 2.267567 20.932994 2.781532 2.719966 1.406448 1.531485 2.247270 -3.550492 1.182110 30.997582 10.160874 -13.021113 29.915369 -15.650035 -20.053092 1.612268 6.323494 -40.201015 14.224974 10.298337 -160.099543 -67.685743 -172.194334 -18.667946 -20.083315 -17.250786 20.269260 2.360438 0.251319 48.019830 9.985537 10.430003 -149.888238 60.465873 -126.581189 25.315500 14.311754 -12.682664 
7.062022 -7.772896 89.595284 45.423671 -0.958271 76.911939 -1.274821 -5.338899 -11.778111 -8.255128 -6.005597 41.401578 6.769519 6.359315 -17.663940 nan nan nan -4.925274 2.223220 -18.199376 -3.102969 -5.359485 88.029476 4.992248 -5.790156 -3.754210 nan nan nan -3.134761 3.017680 19.901354 2.594658 3.202352 2.125394 1.325740 3.194933 -3.025423 0.993797 30.168741 10.292836 -12.663336 30.012117 -15.158900 -19.612649 2.661266 5.925997 -39.436131 16.326024 10.566295 -158.832264 -66.899680 -174.387511 -17.290475 -20.233129 -18.957677 19.675032 3.087574 -0.140876 47.381611 10.756597 10.057555 -149.593943 60.080547 -127.203444 24.800123 13.567682 -12.430190 
5.508099 -6.317674 90.099030 45.028540 -1.119832 76.788628 -1.298548 -5.084071 -12.390939 -7.943877 -6.335166 39.584272 6.635107 6.280695 -15.313374 nan nan nan -4.226307 1.245301 -14.397194 -1.913467 -4.151097 86.634213 4.139597 -6.331401 -2.205499 nan nan nan -2.861384 3.846399 18.130965 2.511305 3.623874 3.371074 1.057674 4.114615 -2.430827 1.016222 29.277912 10.767624 -12.342607 30.047032 -14.655058 -19.186733 3.469302 5.643362 -38.394736 18.282858 10.977100 -158.645579 -66.136433 -175.147134 -16.535641 -20.025737 -19.544826 19.081741 3.766845 -0.378982 46.329866 11.661216 9.273466 -149.405915 59.858109 -127.382948 25.480412 12.871282 -11.429084 
3.910919 -4.855297 90.684631 44.593827 -1.271472 76.886881 -1.251284 -5.047233 -12.902966 -7.426220 -6.567524 37.120949 6.524251 6.238530 -12.707343 nan nan nan -3.603590 0.417989 -10.873975 -0.482082 -2.939207 84.661866 3.404955 -6.523845 -0.149479 nan nan nan -2.676997 4.792553 16.371844 2.501738 4.099323 4.216543 0.918967 5.023458 -1.914113 1.119837 28.364872 11.658916 -11.786455 30.125166 -14.020075 -18.566015 4.223552 5.441778 -37.458701 19.998436 11.353441 -158.318540 -65.531589 -176.122817 -15.394904 -19.523208 -19.018286 18.369723 4.351954 -0.395217 45.145460 12.360632 8.372721 -149.072669 59.735111 -127.660344 25.741685 12.605733 -9.774909 
2.307529 -3.385001 91.335716 44.099863 -1.540966 76.868851 -1.438705 -5.086160 -12.847083 -6.621859 -6.903997 33.930213 6.338550 6.248933 -9.785540 nan nan nan -3.227854 -0.164290 -7.318808 0.874696 -1.673063 82.238375 2.971700 -6.279011 1.901824 nan nan nan -2.531944 5.749690 15.147038 2.362910 4.627384 4.667951 0.823137 5.901674 -1.582165 1.151701 27.694834 12.700441 -11.017377 30.213386 -13.532881 -17.669807 4.963464 5.117022 -36.526836 21.660519 11.759950 -157.430154 -64.807815 -178.269716 -14.143095 -18.954529 -18.969303 17.378353 4.878610 -0.213429 44.599939 12.766054 8.044851 -148.534214 59.436256 -128.619272 24.268453 12.025108 -8.584813 
0.701948 -1.940754 92.040817 43.621666 -1.832526 76.778029 -1.646471 -5.130992 -12.367746 -5.635792 -7.230038 30.054158 5.700863 6.030403 -6.282943 nan nan nan -3.063463 -0.587356 -3.667449 1.932006 -0.557164 79.236324 2.635764 -5.458358 3.990759 nan nan nan -2.366940 6.678686 14.086422 2.193123 5.159140 5.168646 0.717286 6.711908 -1.417875 1.207463 27.223222 14.026611 -10.348822 30.052529 -13.424221 -16.700965 5.696867 4.723859 -35.114566 23.139545 12.311907 -155.839473 -63.806122 178.765327 -14.632487 -19.354924 -19.765770 16.392705 5.288411 -0.092036 43.977387 13.030023 7.958577 -148.444734 59.099581 -129.950326 22.999072 11.622881 -8.424285 
-0.926850 -0.454214 92.761063 43.328558 -2.199616 76.781203 -1.933634 -5.328754 -11.909027 -4.594379 -7.454421 25.802898 4.585781 5.803125 -1.927317 nan nan nan -3.079657 -0.956243 -0.230327 2.777962 0.495208 75.839703 2.398629 -4.381042 5.757107 nan nan nan -2.184349 7.528067 13.089806 1.981906 5.530126 5.736949 0.553357 7.408081 -1.484888 1.207297 26.689942 15.492580 -9.823200 29.766493 -13.377093 -15.766402 6.405966 4.329525 -33.369524 24.310091 12.792847 -154.123973 -62.810720 176.244724 -15.043568 -20.147257 -20.204793 15.324091 5.590588 -0.165034 43.118644 13.325989 7.668895 -149.009253 59.171233 -131.368515 21.750152 11.578410 -8.552697 
-2.591777 1.056871 93.463493 43.267955 -2.599628 76.857479 -2.323491 -5.797491 -11.360275 -3.306952 -7.661706 20.971734 2.946394 5.755814 3.122635 nan nan nan -3.062557 -1.174504 2.932084 3.219211 1.508362 72.295276 2.835015 -3.259802 6.976107 nan nan nan -2.025541 8.276637 12.138575 1.727230 5.685389 6.569371 0.321142 8.064810 -1.863355 1.154847 26.303689 16.881668 -9.348927 29.342578 -13.499218 -14.632707 6.900004 4.073193 -31.984685 25.389455 13.144982 -153.223056 -62.126691 174.821540 -14.474263 -20.753580 -19.873771 13.951765 5.855851 -0.377688 42.541038 13.504080 7.279434 -149.969499 59.514756 -132.750296 20.253147 11.510235 -7.986925 
-4.307654 2.559443 94.125481 43.395823 -2.931317 77.099473 -2.648280 -6.647860 -10.658610 -1.852095 -7.977877 15.366098 1.179343 6.139723 8.534910 nan nan nan -2.789487 -0.993063 5.667485 3.067339 2.113643 68.746914 4.016004 -2.253389 7.674232 nan nan nan -1.870453 8.949360 11.306528 1.376964 5.817392 7.241901 0.113085 8.533129 -2.430643 1.087236 26.164191 18.269729 -8.850795 28.874144 -13.858349 -13.458596 7.137631 4.087712 -31.157443 26.703275 13.472176 -153.744806 -61.831116 174.971052 -14.247450 -21.158879 -19.199029 12.365362 6.147967 -0.631804 42.547789 13.398795 7.034721 -151.091217 59.737685 -134.153050 19.275972 11.534281 -7.946662 
-6.062311 4.054684 94.727325 43.588521 -3.088862 77.583949 -2.648531 -7.676896 -10.211514 -0.658543 -8.881168 9.968318 0.135142 6.735083 13.467688 nan nan nan -2.226686 -0.864437 7.773547 3.072459 2.762151 65.424177 5.204612 -1.762245 7.812404 nan nan nan -1.699457 9.585316 10.433256 1.092069 5.964564 7.485259 0.030530 8.652179 -2.878688 0.859945 26.057155 19.461714 -8.311489 28.540016 -14.158912 -12.193883 7.247992 4.283382 -30.432660 27.724002 13.140124 -152.661056 -61.291144 174.044760 -14.451709 -22.030525 -20.406397 10.960430 6.487590 -0.647120 42.175227 13.465404 6.402020 -152.273114 60.059044 -135.110420 19.213880 12.317165 -8.654267 
